<svg xmlns="http://www.w3.org/2000/svg" viewBox="0 0 400 300" width="400" height="300">
  <defs>
    <linearGradient id="muffin1" x1="0" y1="0" x2="0" y2="1">
      <stop offset="0%" stop-color="#DEB887"/>
      <stop offset="50%" stop-color="#CD853F"/>
      <stop offset="100%" stop-color="#A0522D"/>
    </linearGradient>
    <linearGradient id="topping1" x1="0" y1="0" x2="0" y2="1">
      <stop offset="0%" stop-color="#8B4513"/>
      <stop offset="100%" stop-color="#654321"/>
    </linearGradient>
  </defs>
  <rect width="100%" height="100%" fill="#FAF8F5"/>
  <!-- Shadow -->
  <ellipse cx="200" cy="230" rx="90" ry="10" fill="#D2B48C" opacity="0.3"/>
  <!-- Muffin base (trapezoid shape) -->
  <path d="M 120 200 L 280 200 L 260 120 L 140 120 Z" fill="url(#muffin1)"/>
  <!-- Muffin top -->
  <ellipse cx="200" cy="120" rx="80" ry="35" fill="url(#muffin1)"/>
  <!-- Chocolate chips on top -->
  <circle cx="180" cy="110" r="6" fill="url(#topping1)"/>
  <circle cx="220" cy="115" r="6" fill="url(#topping1)"/>
  <circle cx="200" cy="125" r="6" fill="url(#topping1)"/>
  <circle cx="170" cy="130" r="6" fill="url(#topping1)"/>
  <circle cx="230" cy="125" r="6" fill="url(#topping1)"/>
  <!-- Muffin wrapper -->
  <path d="M 120 200 L 125 210 L 275 210 L 280 200" fill="#8B4513" opacity="0.6"/>
  <!-- Highlight -->
  <ellipse cx="200" cy="110" rx="60" ry="20" fill="#F4E4BC" opacity="0.4"/>
</svg>svg xmlns="http://www.w3.org/2000/svg" viewBox="0 0 320 200" width="640" height="400"><rect width="100%" height="100%" rx="20" fill="#fff7f3"/><g transform="translate(50,50)"><ellipse cx="120" cy="30" rx="80" ry="36" fill="#b08a6f"/><rect x="60" y="36" width="120" height="80" rx="18" fill="#fff3f0"/></g></svg>